
<svg version="1.1" xmlns="http://www.w3.org/2000/svg" xmlns:xlink="http://www.w3.org/1999/xlink"
	 viewBox="0 0 63.1 166.9" role="img" aria-labelledby="title">
	<title id="title">Rollo the Robot</title>
<g>
	<path fill="#9BCCC9" d="M17.3,162.1c4.7-8.1,0.3-12-3.2-15.2c-1.2-1.1-2.3-2.1-2.8-3.1c-0.1,1.2,0.4,3.8,1.3,6.6l0.3,0.8l-0.8-0.3
		c-1.5-0.6-3.9-2.8-4.7-6.2c-0.7-3.2-0.3-8.6,6.1-15.9c1.1-1.3,1.3-3.2,0.9-3.9c-0.1-0.3-0.3-0.3-0.4-0.3c-0.3,0-1.6,0.3-4.1,5.9
		l-0.5,1.1l-0.2-1.2c-0.7-3.4-1-7.4,1-11.2l-7.8-5L2,112l5.6-6.6l4.3-1.3v-9C10.1,93.8,9,91.7,9,89.5c0-0.3,0-0.6,0.1-0.9
		c-0.2-0.2-0.3-0.4-0.5-0.7l-1.5-3l-3.5-2v-4.8l-2.6-5c-0.3-0.6-0.5-1.2-0.6-1.8c0-0.3,0-0.6,0.1-1L3.4,54c0-0.2,0.1-0.3,0.1-0.4
		l0-8.8l2.9-2.7l5.5-0.7l-3-1.4V19.7l4.5-3.6L25.6,14V6.2c-1-0.5-1.6-1.6-1.6-2.7c0-1.7,1.4-3.1,3.1-3.1s3.1,1.4,3.1,3.1
		c0,1.1-0.6,2.2-1.6,2.7v7.3l3.2-0.5l9.8,3.2l4.9,3.7v20.8l-0.3,0.1l4.9,1.9l2.5,2.2V68l3.3,6.3c3.3,0.4,5.8,3.2,5.8,6.6
		c0,0.9-0.2,1.9-0.6,2.7l-0.2,0.5l-0.4-0.4l-0.2,0.4L59.1,82c-0.3-0.3-0.7-0.4-1.1-0.5c-0.4,0.1-0.8,0.3-1.2,0.6
		c-0.7,0.8-0.7,2.1,0.1,2.8l2.1,1.9l-0.6,0.2c-0.8,0.3-1.6,0.5-2.4,0.5c-0.1,0-0.1,0-0.2,0h-0.2c-0.1,0-0.1,0-0.2,0
		c-2.3,0-4.4-1.2-5.6-3.1l-2.8,0.8v19.2l3.7,1.1l2.2,8.7l-4.3,1.3c0.1,2.1-0.2,4-0.4,5.5l-0.2,1.4l-0.5-1.3c-0.8-2-1.5-3.6-2.2-4.6
		l-1.6,0.5c0.1,0.9,0.4,1.8,0.9,2.5c5.6,7.6,5.8,13.1,5,16.3c-0.8,3.4-2.9,5.3-3.9,5.8l-0.8,0.4l0.2-0.8c0.7-2.6,1.1-5.1,1.1-6.4
		c-0.5,0.9-1.3,1.9-2.3,2.9c-3,3.2-6.7,7.2-2.7,15.3l1.3,2.7l-2-2.3c-6-7.1-3-15.9-0.7-22.4c1.2-3.4,2.2-6.4,1.3-7.7
		c-0.4-0.5-1-0.8-2.1-0.9c-0.5,0-0.8,0.1-1,0.4c-0.5,0.6-0.3,2.2,0,4c0.5,3.4,1.2,8-2.1,11.7l-1.5,1.8l0.9-2.1
		c1.4-3.3,0.2-6.3-1.1-9.4c-0.5-1.3-1-2.6-1.4-3.9c0,0.4,0,0.9,0.1,1.4l0.6,2.4l-1.3-2.1c-1-1.6-1.5-3.1-1.7-4.7l-3.4,1.1l0.2,0.3
		c1.8,3.7,3.7,7.5,0.1,12.5l-1.3,1.8l0.6-2.1c0.2-0.7,0.2-1.3,0.1-1.7c-0.4,1.4-1.1,2.8-1.7,4.2c-1.5,3.2-3,6.1-1.3,9.4l1,2
		l-1.6-1.5c-3.9-3.8-3.1-8.4-2.5-11.8c0.3-1.7,0.6-3.2,0-3.9c-0.2-0.3-0.7-0.4-1.3-0.5c-1.3,0.1-2.2,0.4-2.6,1
		c-0.9,1.4,0.3,4.2,1.7,7.5c2.6,6.5,6.3,15.3-0.9,22.4l-2,2L17.3,162.1z M31.2,110.8l1.1,3.8c0.1-0.2,0.2-0.4,0.3-0.7
		c0.4-0.8,0.7-1.7,1-2.6l-4.1-2.2v0.4L31.2,110.8z M29.6,99.5v-9.2l-0.1,0v9.2H29.6z"/>
	<path fill="#173862" d="M27.1,0.8c1.5,0,2.7,1.2,2.7,2.7c0,1.1-0.7,2-1.6,2.5v8l3.5-0.6l9.6,3.1l4.7,3.5v20.3l-1.2,0.3l6,2.4l2.4,2
		v23.2l3.4,6.5c3.2,0.3,5.7,3,5.7,6.2c0,0.9-0.2,1.8-0.5,2.6L61.3,83c0,0.1-0.1,0.3-0.2,0.4l-1.9-1.7c-0.4-0.3-0.8-0.5-1.3-0.6
		c-0.5,0.1-1.1,0.3-1.5,0.7c-0.9,1-0.8,2.5,0.1,3.3l1.6,1.5c-0.7,0.3-1.5,0.4-2.3,0.4c-0.1,0-0.2,0-0.3,0c-0.1,0-0.2,0-0.3,0
		c-2.3,0-4.3-1.3-5.4-3.1l-3.4,1v19.6l-0.3,0.1l4.1,1.2l2.1,8.1l-4.3,1.2c0.1,2.1-0.1,4-0.4,5.7c-0.9-2.4-1.7-4-2.3-4.9l-1.8,0.5
		l-0.4-0.2c0,1,0.3,2.4,1,3.4c9.8,13.2,3.5,20.5,1.3,21.6c0,0,1.9-7,0.7-7.6c-0.4,4-11.3,7.5-5.3,19.5c-10.6-12.5,7.6-30.5-1.7-31.1
		c-4.7,0.1,2.4,9.5-3.4,16.2c2.3-5.4-2.2-10.1-2.8-15.1c0,0-0.8,1.2-0.3,3.1c-1.1-1.8-1.6-3.4-1.7-5l-4.2,1.4
		c1.9,3.9,4.2,7.7,0.5,12.8c0.6-1.9-0.3-3.1-0.3-3.1c-0.7,5-6,9.7-3.3,15.1c-6.8-6.7,1.4-16.1-4-16.2c-11.1,0.6,10.5,18.6-2.1,31.1
		c7-12-5.8-15.5-6.3-19.5c-1.4,0.6,0.9,7.6,0.9,7.6c-2.6-1.1-10-8.3,1.5-21.5c1.5-1.9,1.5-4.9,0.3-4.9c-0.9,0-2.4,1.5-4.5,6.1
		c-0.6-3.2-1.1-7.3,1.2-11.2l-8-5.1l-0.4-1.8l5.4-6.4l4.5-1.3v-9.5c-1.8-1.1-2.9-3.1-2.9-5.3c0-0.3,0-0.7,0.1-1
		c-0.2-0.2-0.4-0.4-0.5-0.7l-1.6-3.1l-3.4-2v-4.6l-2.6-5.1C1,72.6,0.8,72,0.8,71.4c0-0.3,0-0.6,0.1-0.9l2.9-16.5
		c0-0.2,0.1-0.3,0.1-0.5V45l2.6-2.5l6.7-0.8h0l-4-1.8v-20l4.3-3.4L26,14.4V6c-0.9-0.4-1.6-1.4-1.6-2.5C24.4,2,25.6,0.8,27.1,0.8
		 M29.1,99.8H30V89.8l0,0L29.1,90V99.8 M20.7,92.4l1.2-0.4h0L20.7,92.4L17,90.3c0,0,0,0,0,0L20.7,92.4 M21.9,92.1l0.1,0L21.9,92.1
		C21.9,92.1,21.9,92.1,21.9,92.1 M32.2,115.8c0.6-1.5,1.3-3,1.8-4.5l-4.9-2.6v1.2l1.7,1.2L32.2,115.8 M27.1,0
		c-1.9,0-3.5,1.6-3.5,3.5c0,1.2,0.6,2.3,1.6,2.9v7.3l-11.8,2l-0.2,0l-0.2,0.1l-4.3,3.4l-0.3,0.2v0.4v20v0.5L9,40.5l1.5,0.7l-4.1,0.5
		l-0.2,0L6,41.9l-2.6,2.5l-0.2,0.2V45v8.5c0,0.1-0.1,0.3-0.1,0.5L0.1,70.4C0,70.8,0,71.1,0,71.5c0,0.7,0.2,1.4,0.6,2l2.5,4.8v4.5
		v0.4l0.4,0.2l3.3,1.9l1.5,2.9c0.1,0.2,0.2,0.4,0.4,0.6c0,0.3,0,0.5,0,0.7c0,2.3,1.1,4.4,2.9,5.7v8.6l-4,1.2L7.4,105l-0.1,0.2
		l-5.4,6.4l-0.2,0.3l0.1,0.4L2,114l0.1,0.3l0.3,0.2l7.4,4.7c-1.9,3.8-1.6,7.7-0.9,11.1l0.5,2.4l1-2.2c2.4-5.5,3.8-5.7,3.8-5.7
		c0,0,0.1,0.2,0.1,0.5c0.1,0.8-0.2,2.1-1,3.1c-6.5,7.4-6.9,12.9-6.1,16.2c0.9,3.9,3.6,6,4.9,6.5l1.5,0.6l-0.5-1.6
		c-0.6-1.9-1.1-3.8-1.2-5.2c0.6,0.7,1.3,1.4,2.1,2.1c3.4,3.1,7.7,7,3.2,14.8l-2.9,5l4.1-4.1c7.3-7.3,3.6-16.3,0.9-22.8
		c-1.3-3.1-2.5-6-1.7-7.2c0.3-0.5,1.1-0.8,2.3-0.9c0.5,0,0.8,0.1,1,0.3c0.4,0.5,0.2,2-0.1,3.6c-0.6,3.5-1.4,8.2,2.6,12.1l3.1,3.1
		l-1.9-3.9c-1.5-3.1-0.1-6,1.3-9.1c0.1-0.1,0.1-0.3,0.2-0.4l-0.6,1.9l2.6-3.6c3.7-5.1,1.8-9.2,0-12.8l2.5-0.8
		c0.2,1.5,0.8,2.9,1.7,4.4l2.6,4.2l-0.3-1c1.1,2.7,1.9,5.3,0.7,8.1l-1.8,4.3l3.1-3.5c0.6-0.7,1.1-1.4,1.4-2.1
		c-1.4,5.5-1.9,11.7,2.6,17l3.9,4.6l-2.7-5.4c-3.9-7.9-0.2-11.7,2.7-14.9c0.6-0.6,1.1-1.2,1.5-1.7c-0.2,1.3-0.5,3.1-1,4.9l-0.4,1.6
		l1.5-0.7c1-0.5,3.2-2.4,4.1-6c0.8-3.4,0.6-9-5.1-16.7c-0.4-0.6-0.7-1.4-0.8-2l1.1-0.3c0.6,1,1.3,2.4,2,4.3l1,2.6l0.5-2.8
		c0.2-1.4,0.5-3.3,0.4-5.3l3.7-1.1l0.7-0.2l-0.2-0.7l-2.1-8.1l-0.1-0.4l-0.4-0.1l-3.3-1V85.5l2.3-0.7c1.3,1.9,3.5,3,5.8,3
		c0.1,0,0.2,0,0.2,0l0.1,0l0.1,0c0.1,0,0.1,0,0.2,0c0.9,0,1.7-0.2,2.6-0.5l1.1-0.4l-0.9-0.8l-1.6-1.5c-0.3-0.3-0.5-0.7-0.5-1.1
		c0-0.4,0.1-0.8,0.4-1.2c0.3-0.3,0.6-0.4,0.9-0.5c0.3,0.1,0.6,0.2,0.8,0.4l1.9,1.7l0.8,0.7l0.2-0.4l0.4,0.4l0.4-1
		c0.4-0.9,0.6-1.9,0.6-2.9c0-3.5-2.5-6.4-6-6.9l-3.1-6V45v-0.3l-0.3-0.2l-2.4-2l-0.1-0.1l-0.1,0l-4.3-1.7v-0.3V20v-0.4l-0.3-0.2
		l-4.7-3.5l-0.1-0.1l-0.1,0L32,12.7l-0.2-0.1l-0.2,0L29,13.1V6.4c1-0.6,1.6-1.7,1.6-2.9C30.6,1.6,29.1,0,27.1,0L27.1,0z M32.3,113.5
		l-0.8-2.7l0-0.1l1.6,0.8C32.9,112.3,32.6,112.9,32.3,113.5L32.3,113.5z M38.9,133c0.3-2.3,0-4.5-0.3-6.4c-0.2-1.6-0.5-3.2,0-3.7
		c0-0.1,0.2-0.2,0.7-0.2c0.9,0.1,1.5,0.3,1.8,0.7c0.8,1.2-0.3,4.2-1.4,7.4C39.4,131.5,39.2,132.3,38.9,133L38.9,133z"/>
</g>
<g>
	<polygon fill="#4E928D" points="28.3,3.5 26,3.9 26,16.5 28.3,16.1 	"/>
	<circle fill="#FFDD15" cx="27.1" cy="3.5" r="2.7"/>
	<g>
		<path fill="#F16C54" d="M25.2,115.7c-1.1,6.8,8,11.8,2.1,19.8c0.6-1.9-0.3-3.1-0.3-3.1c-0.7,5-6,9.7-3.3,15.1
			c-6.8-6.7,1.4-16.1-4-16.2c-11.1,0.6,10.5,18.6-2.1,31.1c7-12-5.8-15.5-6.3-19.5c-1.4,0.6,0.9,7.6,0.9,7.6
			c-2.6-1.1-10-8.3,1.5-21.5c2.7-3.3,0.7-9.7-4.2,1.3c-0.8-4.1-1.4-9.8,3.8-14.4C15.3,115.7,25.2,115.7,25.2,115.7z"/>
		<path fill="#F16C54" d="M34.6,106.5c0.9,6.8-6.8,11.8-1.8,19.8c-0.5-1.9,0.3-3.1,0.3-3.1c0.6,5,5,9.7,2.8,15.1
			c5.8-6.7-1.2-16.1,3.4-16.2c9.4,0.6-8.9,18.6,1.7,31.1c-5.9-12,4.9-15.5,5.3-19.5c1.2,0.6-0.7,7.6-0.7,7.6
			c2.2-1.1,8.5-8.3-1.3-21.6c-2.3-3.3-0.6-9.7,3.5,1.3c0.7-4.1,1.2-9.8-3.2-14.4C43,106.5,34.6,106.5,34.6,106.5z"/>
		<polygon fill="#FFDD15" points="30.5,99.8 27.8,99.8 27.8,107.9 43.8,116.5 52.6,114 50.5,105.8 		"/>
		<polygon fill="#FFEEAD" points="26.9,99.8 30,101.5 42.8,108.1 50.5,105.8 30,99.8 		"/>
		<polygon fill="#FFDD15" points="27.8,109.2 30.8,111.1 33.6,120.5 20.1,124.9 2.8,113.8 2.4,112.1 7.8,105.7 14,103.8 		"/>
		<polygon fill="#FFEEAD" points="7.8,105.7 20.7,114.4 30.8,111.1 24.3,106.5 14,103.8 		"/>
		<path fill="#4E928D" d="M57,75.3c0.9,1.8,0.1,4.1-1.9,5.1l-0.3,0.2c-2,1-4.3,0.4-5.3-1.4l-7.8-15c-0.9-1.8-0.1-4.1,1.9-5.1
			l0.3-0.2c2-1,4.3-0.4,5.3,1.4L57,75.3z"/>
		<path fill="#58B4AC" d="M56.2,75.3c0.9,1.8,0.1,4.1-1.9,5.1L54,80.6c-2,1-4.3,0.4-5.3-1.4l-7.8-15c-0.9-1.8-0.1-4.1,1.9-5.1
			l0.3-0.2c2-1,4.3-0.4,5.3,1.4L56.2,75.3z"/>
		<g>
			<path fill="#4E928D" d="M56.5,81.8c0.9-1,2.4-1,3.3-0.1l1.9,1.7c0.4-0.8,0.5-1.6,0.5-2.6c0-3.5-2.8-6.3-6.3-6.3
				c-3.5,0-6.3,2.8-6.3,6.3c0,3.5,2.8,6.3,6.3,6.3c0.8,0,1.6-0.2,2.3-0.4l-1.6-1.5C55.7,84.3,55.7,82.8,56.5,81.8z"/>
		</g>
		<g>
			<path fill="#FFDD15" d="M56,81.8c0.9-1,2.4-1,3.3-0.1l1.9,1.7c0.4-0.8,0.5-1.6,0.5-2.6c0-3.5-2.8-6.3-6.3-6.3
				c-3.5,0-6.3,2.8-6.3,6.3c0,3.5,2.8,6.3,6.3,6.3c0.8,0,1.6-0.2,2.3-0.4l-1.6-1.5C55.1,84.3,55.1,82.8,56,81.8z"/>
		</g>
		<polygon fill="#58B4AC" points="53.2,45 50.9,42.9 43.5,40 13.3,41.7 6.5,42.5 3.9,45 3.9,82.8 20.7,92.4 49.2,80.4 		"/>
		<polygon fill="#00A69C" points="20.7,49.6 50.9,42.9 53.2,45 20.7,52.7 		"/>
		<polygon fill="#84C2BE" points="3.9,45 20.7,52.7 20.7,92.4 3.9,82.8 		"/>
		<polygon fill="#58B4AC" points="46.7,82.1 46.7,104.5 39.7,106.5 30,101.5 30,89.8 		"/>
		<polygon fill="#00A69C" points="39.7,106.5 39.7,84.1 46.7,82.1 46.7,104.5 		"/>
		<polygon fill="#00A69C" points="29.1,87.2 29.1,110 22,112.1 22,89.2 		"/>
		<polygon fill="#58B4AC" points="12.3,105.8 22,112.1 22,92 20.7,92.4 12.3,87.6 		"/>
		<polygon fill="#00A69C" points="13.3,41.7 13.3,42.6 23.4,47.2 23.4,42.5 21.9,42.8 		"/>
		<polygon fill="#4E928D" points="53.2,45 20.7,52.7 20.7,92.4 53.2,83.1 		"/>
		<polygon fill="#58B4AC" points="22.5,71.2 51.4,63.1 51.4,81.9 22.5,90.1 		"/>
		<polygon fill="#58B4AC" points="22.5,54.6 40.4,50.2 40.4,63.7 22.5,68.7 		"/>

			<ellipse transform="matrix(0.9626 0.2708 -0.2708 0.9626 16.5352 -10.6856)" fill="#FFDD15" cx="47" cy="54.6" rx="4.9" ry="5.6"/>
		<polygon fill="#4E928D" points="42.5,38.3 42.5,43.1 23.4,47.2 23.4,42.5 		"/>
		<polygon fill="#58B4AC" points="13.5,16.5 31.8,13.4 41.5,16.5 46.1,20 45,39.1 22,45.7 9.3,39.9 9.3,19.9 		"/>
		<polygon fill="#4E928D" points="46.1,20 21.9,24.8 21.9,45.7 46.1,40.3 		"/>
		<polygon fill="#00A69C" points="22.7,20 41.5,16.5 46.1,20 21.9,24.8 		"/>
		<polygon fill="#84C2BE" points="22.7,20 13.5,16.5 9.3,19.9 21.9,24.8 		"/>
		<polygon fill="#FFDD15" points="23.8,39.6 45,35 45,39.1 23.8,43.7 		"/>
		<polygon fill="#FFDD15" points="35,29.5 38.1,33.9 32.9,35 		"/>
		<ellipse transform="matrix(0.994 0.1098 -0.1098 0.994 3.4427 -2.8932)" fill="#FFDD15" cx="28" cy="29.8" rx="3.5" ry="4.1"/>
		<ellipse transform="matrix(0.994 0.1098 -0.1098 0.994 3.2123 -4.4047)" fill="#FFDD15" cx="41.6" cy="27" rx="3.5" ry="4.1"/>
		<polyline fill="none" stroke="#4E928D" stroke-width="0.2933" stroke-miterlimit="10" points="36.1,14.7 17.5,18 15,22.1 15,42.5
					"/>

			<ellipse transform="matrix(0.9951 -9.923294e-02 9.923294e-02 0.9951 -3.0376 1.6336)" fill="#00A69C" cx="14.9" cy="31.4" rx="3.4" ry="4.4"/>

			<ellipse transform="matrix(0.9951 -9.907279e-02 9.907279e-02 0.9951 -3.0127 1.5435)" fill="#FFDD15" cx="14" cy="31.1" rx="3.4" ry="4.4"/>
		<path fill="#4E928D" d="M9.8,72.2c-0.4,2-2.4,3.3-4.6,2.9L4.9,75c-2.2-0.4-3.7-2.3-3.3-4.3l3-16.7c0.4-2,2.4-3.3,4.6-2.9l0.3,0.1
			c2.2,0.4,3.7,2.3,3.3,4.3L9.8,72.2z"/>
		<path fill="#58B4AC" d="M9.1,72.2c-0.4,2-2.4,3.3-4.6,2.9L4.1,75c-2.2-0.4-3.7-2.3-3.3-4.3l3-16.7c0.4-2,2.4-3.3,4.6-2.9l0.3,0.1
			c2.2,0.4,3.7,2.3,3.3,4.3L9.1,72.2z"/>
		<g>
			<path fill="#4E928D" d="M16.7,90.5c0.9-1,2.4-1,3.3-0.1l1.9,1.7c0.4-0.8,0.5-1.6,0.5-2.6c0-3.5-2.8-6.3-6.3-6.3
				c-3.5,0-6.3,2.8-6.3,6.3c0,3.5,2.8,6.3,6.3,6.3c0.8,0,1.6-0.2,2.3-0.4l-1.6-1.5C15.9,93,15.8,91.5,16.7,90.5z"/>
		</g>
		<g>
			<path fill="#FFDD15" d="M16.1,90.5c0.9-1,2.4-1,3.3-0.1l1.9,1.7c0.4-0.8,0.5-1.6,0.5-2.6c0-3.5-2.8-6.3-6.3-6.3
				c-3.5,0-6.3,2.8-6.3,6.3c0,3.5,2.8,6.3,6.3,6.3c0.8,0,1.6-0.2,2.3-0.4l-1.6-1.5C15.3,93,15.3,91.5,16.1,90.5z"/>
		</g>
		<circle fill="#9BCCC9" cx="7" cy="55.9" r="1.8"/>
		<path fill="#4E928D" d="M17.1,84c0.9,1.8,0.1,4.1-1.9,5.1l-0.3,0.2c-2,1-4.3,0.4-5.3-1.4l-7.8-15c-0.9-1.8-0.1-4.1,1.9-5.1L4,67.6
			c2-1,4.3-0.4,5.3,1.4L17.1,84z"/>
		<path fill="#58B4AC" d="M16.4,84c0.9,1.8,0.1,4.1-1.9,5.1l-0.3,0.2c-2,1-4.3,0.4-5.3-1.4l-7.8-15C0.2,71,1,68.8,3,67.7l0.3-0.2
			c2-1,4.3-0.4,5.3,1.4L16.4,84z"/>
		<circle fill="#9BCCC9" cx="12.1" cy="86.8" r="1.8"/>
		<circle fill="#9BCCC9" cx="3.9" cy="71.6" r="1.8"/>
	</g>
</g>
</svg>
